HIERARCHY
ROOT Hips
{
  OFFSET 64.5269 100.592 -2.87728
  CHANNELS 6 Xposition Yposition Zposition Zrotation Xrotation Yrotation
  JOINT RightUpLeg
  {
    OFFSET -8.9458 -8.66707 0.101652
    CHANNELS 6 Xposition Yposition Zposition Zrotation Xrotation Yrotation
    JOINT RightLeg
    {
      OFFSET 0 -44.4227 1.3727
      CHANNELS 6 Xposition Yposition Zposition Zrotation Xrotation Yrotation
      JOINT RightFoot
      {
        OFFSET 0.253549 -42.0924 -1.46059
        CHANNELS 6 Xposition Yposition Zposition Zrotation Xrotation Yrotation
        JOINT RightToes
        {
          OFFSET 0.04 -4.41509 8.4991
          CHANNELS 6 Xposition Yposition Zposition Zrotation Xrotation Yrotation
          End Site
          {
            OFFSET -0.08 -0.137448 9.77979
          }
        }
      }
    }
  }
  JOINT Spine
  {
    OFFSET 0 11.8905 0
    CHANNELS 6 Xposition Yposition Zposition Zrotation Xrotation Yrotation
    JOINT Spine1
    {
      OFFSET 0 25.6574 0.127663
      CHANNELS 6 Xposition Yposition Zposition Zrotation Xrotation Yrotation
      JOINT HEad
      {
        OFFSET 0 8.73416 0.011341
        CHANNELS 6 Xposition Yposition Zposition Zrotation Xrotation Yrotation
        End Site
        {
          OFFSET -0.29 12.7742 2.51395
        }
      }
      JOINT LeftShoulder1
      {
        OFFSET 8.99 -0.362252 -0.22
        CHANNELS 6 Xposition Yposition Zposition Zrotation Xrotation Yrotation
        JOINT LeftArm
        {
          OFFSET 10.2827 -0.00337999 0.322123
          CHANNELS 6 Xposition Yposition Zposition Zrotation Xrotation Yrotation
          JOINT LeftForeArm
          {
            OFFSET 26.2597 0.099144 -1.42434
            CHANNELS 6 Xposition Yposition Zposition Zrotation Xrotation Yrotation
            JOINT LeftHand
            {
              OFFSET 22.0306 0.0855632 1.02404
              CHANNELS 6 Xposition Yposition Zposition Zrotation Xrotation Yrotation
              End Site
              {
                OFFSET 13.3827 -0.601419 1.50567
              }
            }
          }
        }
      }
      JOINT RightShoulder
      {
        OFFSET -8.99 -0.362252 -0.22
        CHANNELS 6 Xposition Yposition Zposition Zrotation Xrotation Yrotation
        JOINT RightArm
        {
          OFFSET -10.2827 -0.00338 0.322123
          CHANNELS 6 Xposition Yposition Zposition Zrotation Xrotation Yrotation
          JOINT RightForeArm
          {
            OFFSET -26.364 0.099144 -1.42434
            CHANNELS 6 Xposition Yposition Zposition Zrotation Xrotation Yrotation
            JOINT RightHand
            {
              OFFSET -22.029 0.0853627 1.0224
              CHANNELS 6 Xposition Yposition Zposition Zrotation Xrotation Yrotation
              End Site
              {
                OFFSET -13.2399 -0.600127 1.51802
              }
            }
          }
        }
      }
    }
  }
  JOINT LeftUpLeg
  {
    OFFSET 8.9458 -8.66707 0.101652
    CHANNELS 6 Xposition Yposition Zposition Zrotation Xrotation Yrotation
    JOINT LeftLeg
    {
      OFFSET 0 -44.4227 1.3727
      CHANNELS 6 Xposition Yposition Zposition Zrotation Xrotation Yrotation
      JOINT LeftFoot
      {
        OFFSET -0.253549 -42.0924 -1.46059
        CHANNELS 6 Xposition Yposition Zposition Zrotation Xrotation Yrotation
        JOINT LeftToes
        {
          OFFSET -0.04 -4.41509 8.4991
          CHANNELS 6 Xposition Yposition Zposition Zrotation Xrotation Yrotation
          End Site
          {
            OFFSET 0.08 -0.047448 9.77979
          }
        }
      }
    }
  }
}
MOTION
Frames:	10
Frame Time:	0.0333333
89.1615 25.828 -0.0819261 -65.3118 -6.59777 93.7939 -8.9458 -8.66707 0.101652 2.05482 9.73207 -13.7038 3.19744e-014 -44.4227 1.3727 -0.166956 23.0352 0.0376653 0.253549 -42.0924 -1.46059 0.137063 16.9742 32.5746 0.04 -4.41509 8.4991 0.0462048 0.000530889 0.662642 9.76996e-014 11.8905 5.32907e-015 0.705403 -11.7897 -1.11958 3.55271e-015 25.6574 0.127663 2.118 -20.3484 -1.44077 -1.5099e-014 8.73416 0.011341 -4.90137 -50.3035 -2.70343 8.99 -0.362252 -0.22 -2.6548 -0.308431 -6.55276 10.2827 -0.00337999 0.322123 -82.7732 -27.1309 15.8037 26.2597 0.099144 -1.42434 110.094 33.0009 -121.827 19.0418 0.100787 1.02523 53.522 5.19799 13.9826 -8.99 -0.362252 -0.22 6.43924 0.0493742 6.02519 -10.2827 -0.00338 0.322123 67.6518 -17.5344 -18.6676 -26.364 0.099144 -1.42434 -58.5258 46.5334 86.0502 -19.1829 0.0935759 1.10799 -43.6145 7.87603 4.96381 8.9458 -8.66707 0.101652 5.91992 13.736 -2.8715 2.57572e-014 -44.4227 1.3727 0.0263023 16.1147 -0.268274 -0.253549 -42.0924 -1.46059 -0.131092 11.2304 -19.0537 -0.04 -4.41509 8.4991 -1.32804e-009 8.75232e-006 -1.47029e-008 
88.1028 25.942 -0.0361968 -65.3241 -6.57349 93.7057 -8.9458 -8.66707 0.101652 2.23767 9.56254 -13.3852 2.84217e-014 -44.4227 1.3727 -0.166735 23.2029 0.0320761 0.253549 -42.0924 -1.46059 0.133885 14.9976 31.9488 0.04 -4.41509 8.4991 0.0462048 0.000530889 0.662642 9.59233e-014 11.8905 8.88178e-015 0.659952 -11.8523 -1.08045 1.77636e-015 25.6574 0.127663 2.1244 -20.3337 -1.36832 -1.59872e-014 8.73416 0.011341 -4.94672 -48.1822 -2.48019 8.99 -0.362252 -0.22 -2.39131 -0.307783 -6.54964 10.2827 -0.00337999 0.322123 -83.3104 -27.8002 14.7053 26.2597 0.099144 -1.42434 110.101 31.9876 -122.251 18.9861 0.101026 1.02532 52.1537 5.17905 14.2514 -8.99 -0.362252 -0.22 6.09624 0.0456376 6.08357 -10.2827 -0.00338 0.322123 68.0975 -18.3717 -17.953 -26.364 0.099144 -1.42434 -59.8043 45.7054 87.6051 -19.1081 0.0939629 1.10763 -42.7985 8.05454 4.60781 8.9458 -8.66707 0.101652 5.77175 13.5185 -3.35816 2.66454e-014 -44.4227 1.3727 0.0250884 16.2573 -0.2652 -0.253549 -42.0924 -1.46059 -0.135957 9.74872 -18.4304 -0.04 -4.41509 8.4991 -1.32804e-009 8.75232e-006 -1.47029e-008 
86.9862 26.0663 0.0222039 -65.3436 -6.4966 93.5748 -8.9458 -8.66707 0.101652 2.47442 9.39142 -13.1013 2.84217e-014 -44.4227 1.3727 -0.167169 23.3737 0.021887 0.253549 -42.0924 -1.46059 0.123284 12.7867 30.3836 0.04 -4.41509 8.4991 0.0462048 0.000530889 0.662642 9.9476e-014 11.8905 5.32907e-015 0.594642 -11.9137 -1.03078 5.32907e-015 25.6574 0.127663 2.11734 -20.3108 -1.28901 -1.55431e-014 8.73416 0.011341 -5.02361 -45.863 -2.20922 8.99 -0.362252 -0.22 -2.05786 -0.306915 -6.57959 10.2827 -0.00337999 0.322123 -84.0157 -28.4322 13.4538 26.2597 0.099144 -1.42434 109.985 31.2008 -122.495 18.94 0.101219 1.02543 51.0405 5.13334 14.3943 -8.99 -0.362252 -0.22 5.75908 0.042125 6.16721 -10.2827 -0.00338 0.322123 68.7251 -19.3065 -17.0042 -26.364 0.099144 -1.42434 -60.9893 44.9963 88.9643 -19.0471 0.0943129 1.10689 -42.204 8.22179 4.18308 8.9458 -8.66707 0.101652 5.56521 13.2908 -3.86721 2.57572e-014 -44.4227 1.3727 0.0241324 16.3789 -0.264594 -0.253549 -42.0924 -1.46059 -0.143551 8.02442 -17.7774 -0.04 -4.41509 8.4991 -1.32804e-009 8.75232e-006 -1.47029e-008 
85.814 26.1972 0.0983179 -65.3559 -6.3756 93.3967 -8.9458 -8.66707 0.101652 2.78051 9.20651 -12.6892 2.84217e-014 -44.4227 1.3727 -0.166747 23.4471 0.00662942 0.253549 -42.0924 -1.46059 0.113539 10.8661 28.2653 0.04 -4.41509 8.4991 0.0462048 0.000530889 0.662642 1.01252e-013 11.8905 8.88178e-015 0.538688 -11.9909 -0.984648 1.77636e-015 25.6574 0.127663 2.08425 -20.3093 -1.21101 -1.46549e-014 8.73416 0.011341 -4.9122 -42.9924 -1.64607 8.99 -0.362252 -0.22 -1.70774 -0.305931 -6.55093 10.2827 -0.00337999 0.322123 -84.8058 -29.0478 12.11 26.2597 0.099144 -1.42434 109.897 30.4483 -122.648 18.8971 0.101403 1.02545 49.8703 5.10051 14.4577 -8.99 -0.362252 -0.22 5.46697 0.0394042 6.17601 -10.2827 -0.00338 0.322123 69.3843 -20.2655 -15.8632 -26.364 0.099144 -1.42434 -62.3848 44.2142 90.4804 -18.9833 0.0947163 1.10562 -42.6364 8.24934 3.45725 8.9458 -8.66707 0.101652 5.314 13.0171 -4.52444 2.66454e-014 -44.4227 1.3727 0.0232867 16.5199 -0.265341 -0.253549 -42.0924 -1.46059 -0.15501 6.11747 -17.0726 -0.04 -4.41509 8.4991 -1.32804e-009 8.75232e-006 -1.47029e-008 
84.6 26.3579 0.178623 -65.3934 -6.20332 93.1302 -8.9458 -8.66707 0.101652 2.9789 8.92156 -12.6291 3.01981e-014 -44.4227 1.3727 -0.167287 23.5572 -0.0145697 0.253549 -42.0924 -1.46059 0.104542 8.3783 26.8195 0.04 -4.41509 8.4991 0.0462048 0.000530889 0.662642 9.76996e-014 11.8905 8.88178e-015 0.461432 -12.0484 -0.89483 3.55271e-015 25.6574 0.127663 1.98971 -20.2709 -1.04931 -1.55431e-014 8.73416 0.011341 -4.80148 -39.7631 -1.0834 8.99 -0.362252 -0.22 -1.31893 -0.304869 -6.47985 10.2827 -0.00337999 0.322123 -85.8569 -29.8408 10.4966 26.2597 0.099144 -1.42434 110.333 29.5664 -122.918 18.8632 0.101584 1.02496 48.6647 5.07489 14.8166 -8.99 -0.362252 -0.22 5.23572 0.037563 6.2287 -10.2827 -0.00338 0.322123 70.1822 -20.9168 -14.57 -26.364 0.099144 -1.42434 -63.1516 43.5723 91.4242 -18.9337 0.0949787 1.10524 -42.0436 8.38545 3.04221 8.9458 -8.66707 0.101652 4.99464 12.6191 -5.19436 2.75335e-014 -44.4227 1.3727 0.0229194 16.8064 -0.266818 -0.253549 -42.0924 -1.46059 -0.169256 3.99292 -16.4402 -0.04 -4.41509 8.4991 -1.32804e-009 8.75232e-006 -1.47029e-008 
83.3122 26.5337 0.248354 -65.3323 -6.02131 92.8321 -8.9458 -8.66707 0.101652 2.99799 8.67553 -13.1518 2.84217e-014 -44.4227 1.3727 -0.167328 23.9854 -0.0377106 0.253549 -42.0924 -1.46059 0.0836032 4.37713 25.3844 0.04 -4.41509 8.4991 0.0462048 0.000530889 0.662642 9.76996e-014 11.8905 5.32907e-015 0.383148 -12.0383 -0.794761 5.32907e-015 25.6574 0.127663 1.89967 -20.1119 -0.876896 -1.64313e-014 8.73416 0.011341 -4.82882 -36.4503 -0.518779 8.99 -0.362252 -0.22 -0.973075 -0.303657 -6.56132 10.2827 -0.00337999 0.322123 -87.0641 -30.5784 8.55837 26.2597 0.099144 -1.42434 110.686 28.8974 -123.016 18.8383 0.101722 1.02453 47.5032 5.05893 14.8756 -8.99 -0.362252 -0.22 5.05451 0.0359865 6.3083 -10.2827 -0.00338 0.322123 71.0062 -21.4862 -12.9079 -26.364 0.099144 -1.42434 -63.6142 43.103 92.03 -18.8985 0.0951532 1.10511 -41.1582 8.59814 2.7462 8.9458 -8.66707 0.101652 4.70972 12.1228 -5.32342 2.66454e-014 -44.4227 1.3727 0.0221919 17.5662 -0.268717 -0.253549 -42.0924 -1.46059 -0.178778 0.96524 -16.6361 -0.04 -4.41509 8.4991 -1.32804e-009 8.75232e-006 -1.47029e-008 
82.0188 26.7427 0.316247 -65.2743 -5.8703 92.5243 -8.9458 -8.66707 0.101652 3.08364 8.50748 -13.4824 3.19744e-014 -44.4227 1.3727 -0.167565 24.0913 -0.0631648 0.253549 -42.0924 -1.46059 0.0673953 1.31785 23.7157 0.04 -4.41509 8.4991 0.0462048 0.000530889 0.662642 9.76996e-014 11.8905 3.55271e-015 0.393071 -11.9856 -0.727255 0 25.6574 0.127663 1.8793 -19.8871 -0.741201 -1.55431e-014 8.73416 0.011341 -4.81715 -32.8055 0.0902802 8.99 -0.362252 -0.22 -0.650222 -0.302404 -6.69303 10.2827 -0.00337999 0.322123 -88.507 -31.3519 6.35939 26.2597 0.099144 -1.42434 111.228 28.4609 -123.124 18.831 0.101789 1.02402 46.2363 5.04327 15.2054 -8.99 -0.362252 -0.22 4.92261 0.0350274 6.48141 -10.2827 -0.00338 0.322123 71.7616 -22.0874 -11.0657 -26.364 0.099144 -1.42434 -64.1939 42.6441 92.6925 -18.8653 0.0953478 1.1046 -40.2016 8.80068 2.45165 8.9458 -8.66707 0.101652 4.50746 11.6803 -5.70467 2.75335e-014 -44.4227 1.3727 0.0198621 18.084 -0.269212 -0.253549 -42.0924 -1.46059 -0.189546 -2.21406 -16.4803 -0.04 -4.41509 8.4991 -1.32804e-009 8.75232e-006 -1.47029e-008 
80.694 27.0359 0.37232 -65.2295 -5.68107 92.1121 -8.9458 -8.66707 0.101652 3.11256 8.23768 -13.231 2.84217e-014 -44.4227 1.3727 -0.167344 24.2111 -0.0840294 0.253549 -42.0924 -1.46059 0.0598037 -1.63947 22.2228 0.04 -4.41509 8.4991 0.0462048 0.000530889 0.662642 9.9476e-014 11.8905 8.88178e-015 0.437388 -11.8416 -0.640574 1.77636e-015 25.6574 0.127663 1.87737 -19.5005 -0.571316 -1.46549e-014 8.73416 0.011341 -4.91477 -29.6346 0.616815 8.99 -0.362252 -0.22 -0.291697 -0.299852 -6.86587 10.2827 -0.00337999 0.322123 -90.0737 -32.0526 3.72777 26.2597 0.099144 -1.42434 111.757 28.4337 -123.278 18.845 0.101753 1.02368 45.377 5.04342 15.4152 -8.99 -0.362252 -0.22 4.80763 0.0350534 6.59229 -10.2827 -0.00338 0.322123 72.7869 -22.6316 -8.60935 -26.364 0.099144 -1.42434 -64.189 42.4727 92.7772 -18.8531 0.0953811 1.10489 -39.3075 8.99307 2.13743 8.9458 -8.66707 0.101652 4.20428 11.1337 -5.92916 2.66454e-014 -44.4227 1.3727 0.0172056 18.7008 -0.267983 -0.253549 -42.0924 -1.46059 -0.202275 -5.6012 -16.4563 -0.04 -4.41509 8.4991 -1.32804e-009 8.75232e-006 -1.47029e-008 
79.3285 27.4145 0.416517 -65.1966 -5.50886 91.7454 -8.9458 -8.66707 0.101652 3.15732 7.75068 -12.7974 2.66454e-014 -44.4227 1.3727 -0.166951 24.5525 -0.0994198 0.253549 -42.0924 -1.46059 0.0575936 -4.89115 20.5164 0.04 -4.41509 8.4991 0.0462048 0.000530889 0.662642 9.9476e-014 11.8905 7.10543e-015 0.478481 -11.5584 -0.581908 2.66454e-015 25.6574 0.127663 1.91683 -18.8842 -0.464258 -1.55431e-014 8.73416 0.011341 -4.99273 -26.9767 1.21436 8.99 -0.362252 -0.22 -0.0660123 -0.292521 -7.02408 10.2827 -0.00337999 0.322123 -92.0391 -32.9782 0.477829 26.2597 0.099144 -1.42434 112.596 28.4116 -123.586 18.8688 0.101682 1.02323 44.1723 5.02255 15.6959 -8.99 -0.362252 -0.22 4.82503 0.0364029 6.88506 -10.2827 -0.00338 0.322123 73.6272 -23.1354 -5.69583 -26.364 0.099144 -1.42434 -64.4928 42.4738 92.9387 -18.8554 0.0954402 1.10403 -38.3968 9.20619 1.79897 8.9458 -8.66707 0.101652 3.83237 10.4948 -5.95499 2.66454e-014 -44.4227 1.3727 0.0155271 19.3537 -0.262305 -0.253549 -42.0924 -1.46059 -0.21066 -9.1348 -16.1249 -0.04 -4.41509 8.4991 -1.32804e-009 8.75232e-006 -1.47029e-008 
77.9404 27.9286 0.442192 -65.2348 -5.38473 91.3732 -8.9458 -8.66707 0.101652 3.15591 6.96493 -12.5578 2.84217e-014 -44.4227 1.3727 -0.166362 25.1197 -0.108069 0.253549 -42.0924 -1.46059 0.0581368 -8.11943 19.3666 0.04 -4.41509 8.4991 0.0462048 0.000530889 0.662642 1.01252e-013 11.8905 1.06581e-014 0.490696 -11.1484 -0.494711 5.32907e-015 25.6574 0.127663 1.98352 -18.0634 -0.322128 -1.55431e-014 8.73416 0.011341 -5.06767 -24.6725 1.75579 8.99 -0.362252 -0.22 0.233857 -0.287464 -7.42467 10.2827 -0.00337999 0.322123 -94.4534 -33.8714 -3.4641 26.2597 0.099144 -1.42434 113.456 28.7456 -123.962 18.9128 0.101514 1.02291 43.0253 4.99547 15.7816 -8.99 -0.362252 -0.22 4.80194 0.0412792 7.21015 -10.2827 -0.00338 0.322123 74.6066 -23.563 -2.18766 -26.364 0.099144 -1.42434 -64.0354 42.8826 92.3297 -18.887 0.0952838 1.10415 -36.9658 9.58955 1.97453 8.9458 -8.66707 0.101652 3.39646 9.78454 -5.55148 2.57572e-014 -44.4227 1.3727 0.00938651 19.8275 -0.246102 -0.253549 -42.0924 -1.46059 -0.212397 -12.5168 -15.4386 -0.04 -4.41509 8.4991 -1.32804e-009 8.75232e-006 -1.47029e-008 
